<svg xmlns="http://www.w3.org/2000/svg" width="70.366" height="70.366" viewBox="0 0 70.366 70.366">
  <defs>
    <style>
      .cls-1 {
        fill: #fc747d;
      }
    </style>
  </defs>
  <g id="Grupo_2389" data-name="Grupo 2389" transform="translate(-971 -2713)">
    <g id="dollar" transform="translate(971 2713)">
      <path id="Trazado_8106" data-name="Trazado 8106" class="cls-1" d="M35.183,70.366A35.183,35.183,0,0,1,10.3,10.3,35.183,35.183,0,0,1,60.061,60.061a34.952,34.952,0,0,1-24.878,10.3Zm0-65.968A30.785,30.785,0,1,0,65.968,35.183,30.82,30.82,0,0,0,35.183,4.4Z"/>
      <path id="Trazado_8107" data-name="Trazado 8107" class="cls-1" d="M193.9,115.79a5.5,5.5,0,1,1,5.5-5.5,2.2,2.2,0,0,0,4.4,0,9.911,9.911,0,0,0-7.7-9.646V98.2a2.2,2.2,0,0,0-4.4,0v2.448a9.894,9.894,0,0,0,2.2,19.541,5.5,5.5,0,1,1-5.5,5.5,2.2,2.2,0,0,0-4.4,0,9.911,9.911,0,0,0,7.7,9.646v2.448a2.2,2.2,0,0,0,4.4,0v-2.448a9.894,9.894,0,0,0-2.2-19.541Z" transform="translate(-158.712 -82.806)"/>
    </g>
  </g>
</svg>
