<svg xmlns="http://www.w3.org/2000/svg" width="69.334" height="69.334" viewBox="0 0 69.334 69.334">
  <defs>
    <style>
      .cls-1 {
        fill: #f1ab48;
      }
    </style>
  </defs>
  <g id="Grupo_2390" data-name="Grupo 2390" transform="translate(-1199 -2713)">
    <g id="bank" transform="translate(1199 2713)">
      <g id="Grupo_2381" data-name="Grupo 2381" transform="translate(0 0)">
        <g id="Grupo_2380" data-name="Grupo 2380" transform="translate(0 0)">
          <path id="Trazado_8101" data-name="Trazado 8101" class="cls-1" d="M198.264,63.979a6.306,6.306,0,1,0,6.306,6.306A6.313,6.313,0,0,0,198.264,63.979Zm0,9.461a3.155,3.155,0,1,1,3.155-3.155A3.159,3.159,0,0,1,198.264,73.44Z" transform="translate(-163.6 -54.528)"/>
          <path id="Trazado_8102" data-name="Trazado 8102" class="cls-1" d="M67.758,28.364a1.571,1.571,0,0,0,1.576-1.571v-6.3a1.573,1.573,0,0,0-.771-1.354L37.738.831C37.725.821,37.711.814,37.7.806a6.111,6.111,0,0,0-6.1.022L.771,19.136A1.573,1.573,0,0,0,0,20.49v6.3a1.571,1.571,0,0,0,1.576,1.571H6.3V56.729a6.309,6.309,0,0,0-6.3,6.3v4.727a1.575,1.575,0,0,0,1.576,1.576H67.758a1.575,1.575,0,0,0,1.576-1.576V63.032a6.309,6.309,0,0,0-6.3-6.3V28.364ZM66.182,63.031v3.151H3.151V63.031A3.156,3.156,0,0,1,6.3,59.88H63.031A3.155,3.155,0,0,1,66.182,63.031Zm-56.728-6.3V28.364h6.3V56.728Zm9.455,0V28.364h9.455V56.728Zm12.606,0V28.364h6.3V56.728Zm9.455,0V28.364h9.455V56.728Zm12.606,0V28.364h6.3V56.728ZM3.151,25.213v-3.83L33.157,3.556a3,3,0,0,1,2.995-.011l30.03,17.837v3.83Z" transform="translate(0 0)"/>
        </g>
      </g>
    </g>
  </g>
</svg>
