<svg xmlns="http://www.w3.org/2000/svg" width="72" height="60.926" viewBox="0 0 72 60.926">
  <defs>
    <style>
      .cls-1 {
        fill: #8278ae;
      }
    </style>
  </defs>
  <g id="Grupo_2391" data-name="Grupo 2391" transform="translate(-1437 -2714)">
    <g id="charity" transform="translate(1437 2682.008)">
      <g id="Grupo_2383" data-name="Grupo 2383" transform="translate(17.22 31.992)">
        <g id="Grupo_2382" data-name="Grupo 2382" transform="translate(0 0)">
          <path id="Trazado_8103" data-name="Trazado 8103" class="cls-1" d="M133.814,34.687c-3.644-3.434-9.889-4.218-15.538,1.432-5.641-5.644-11.894-4.866-15.538-1.434a10.291,10.291,0,0,0-.227,14.774l15.765,15.768L134.041,49.46A10.291,10.291,0,0,0,133.814,34.687ZM132.083,47.5,118.276,61.31,104.468,47.5a7.516,7.516,0,0,1,.169-10.8,7.213,7.213,0,0,1,4.99-1.938c3.966,0,5.749,2.37,8.648,5.27,2.822-2.822,4.638-5.27,8.648-5.27a7.235,7.235,0,0,1,4.993,1.936A7.516,7.516,0,0,1,132.083,47.5Z" transform="translate(-99.496 -31.992)"/>
        </g>
      </g>
      <g id="Grupo_2385" data-name="Grupo 2385" transform="translate(41.538 34.764)">
        <g id="Grupo_2384" data-name="Grupo 2384" transform="translate(0 0)">
          <path id="Trazado_8104" data-name="Trazado 8104" class="cls-1" d="M265.729,48.009a4.714,4.714,0,0,0-4.708,4.254l-1.753,17.31a4.445,4.445,0,0,0-2.221,1.191L243.06,83.785A9.4,9.4,0,0,0,240,90.652v15.51h16.615v-7.3a4.192,4.192,0,0,1,1.332-3.038l10.509-10.606a6.888,6.888,0,0,0,2-4.874v-27.6A4.739,4.739,0,0,0,265.729,48.009Zm1.963,32.336a4.134,4.134,0,0,1-1.2,2.927L256.012,93.845a6.934,6.934,0,0,0-2.166,5.018v4.53H242.769V90.669a6.616,6.616,0,0,1,2.168-4.841L258.969,72.76a1.832,1.832,0,0,1,2.545,0,1.794,1.794,0,0,1,.529,1.274,1.772,1.772,0,0,1-.482,1.227l-10.8,9.8,1.861,2.049,10.853-9.845a4.566,4.566,0,0,0,0-6.461,4.418,4.418,0,0,0-1.448-.978l1.747-17.28a1.964,1.964,0,0,1,3.918.2v27.6Z" transform="translate(-240 -48.009)"/>
        </g>
      </g>
      <g id="Grupo_2387" data-name="Grupo 2387" transform="translate(0 34.764)">
        <g id="Grupo_2386" data-name="Grupo 2386" transform="translate(0 0)">
          <path id="Trazado_8105" data-name="Trazado 8105" class="cls-1" d="M27.4,83.785,13.414,70.764a4.424,4.424,0,0,0-2.221-1.191L9.44,52.263A4.732,4.732,0,0,0,0,52.742v27.6a6.877,6.877,0,0,0,2,4.871L12.514,95.823a4.2,4.2,0,0,1,1.332,3.041v7.3H30.462V90.652A9.4,9.4,0,0,0,27.4,83.785Zm.291,19.609H16.615v-4.53a6.939,6.939,0,0,0-2.166-5.018L3.974,83.272a4.134,4.134,0,0,1-1.2-2.927v-27.6a1.965,1.965,0,0,1,3.918-.2l1.747,17.28A4.568,4.568,0,0,0,6.99,77.258L17.842,87.1,19.7,85.053l-10.8-9.8a1.755,1.755,0,0,1-.482-1.227,1.789,1.789,0,0,1,.529-1.274,1.832,1.832,0,0,1,2.545,0L25.524,85.823a6.616,6.616,0,0,1,2.168,4.841v12.73Z" transform="translate(0 -48.009)"/>
        </g>
      </g>
    </g>
  </g>
</svg>
