<svg xmlns="http://www.w3.org/2000/svg" width="93.902" height="72.698" viewBox="0 0 93.902 72.698">
  <defs>
    <style>
      .cls-1 {
        fill: #c0eca8;
      }
    </style>
  </defs>
  <g id="Grupo_2392" data-name="Grupo 2392" transform="translate(-1656 -2708)">
    <path id="education" class="cls-1" d="M94.1,32.411,48.665,8.179a1.513,1.513,0,0,0-1.425,0L1.8,32.411a1.514,1.514,0,0,0,0,2.672l12.83,6.843V61.009H17.66V43.542L22.2,45.965v9.2a6,6,0,0,0-3.274,9.511,30.934,30.934,0,0,0-1.269,8.694v4.3a1.516,1.516,0,0,0,.838,1.356l1.674.838a7.936,7.936,0,0,0,7.094,0l1.674-.838a1.512,1.512,0,0,0,.838-1.354v-4.3a30.934,30.934,0,0,0-1.269-8.694,6,6,0,0,0-3.274-9.511V47.581l22,11.736a1.524,1.524,0,0,0,1.427,0L78.242,43.542V60.261A49.055,49.055,0,0,1,48.858,70.1H47.045a48.735,48.735,0,0,1-15.28-2.454l-.947,2.878a51.761,51.761,0,0,0,16.225,2.605h1.813A52.094,52.094,0,0,0,80.687,62.2a1.514,1.514,0,0,0,.585-1.195V41.926L94.1,35.083a1.514,1.514,0,0,0,0-2.672ZM26.747,76.733l-.838.418a4.987,4.987,0,0,1-4.385,0l-.836-.418V73.371a27.908,27.908,0,0,1,.824-6.734,5.868,5.868,0,0,0,4.41,0,27.908,27.908,0,0,1,.824,6.734Zm0-15.724a3.029,3.029,0,1,1-3.029-3.029A3.032,3.032,0,0,1,26.747,61.009Zm21.2-4.747L26.275,44.7,45.039,34.7a7.7,7.7,0,0,0,2.912.566c3.4,0,6.058-2,6.058-4.544s-2.661-4.544-6.058-4.544-6.058,2-6.058,4.544a3.672,3.672,0,0,0,.565,1.92l-19.4,10.347L5.733,33.747,47.951,11.23,90.169,33.747ZM44.922,30.718c0-.618,1.18-1.515,3.029-1.515s3.029.9,3.029,1.515-1.18,1.515-3.029,1.515S44.922,31.336,44.922,30.718Z" transform="translate(1655 2700)"/>
  </g>
</svg>
