<svg xmlns="http://www.w3.org/2000/svg" viewBox="0 0 140 140">
  <defs>
    <style>
      .cls-1, .cls-4 {
        fill: #fff;
      }

      .cls-1 {
        stroke: #d1d1d1;
      }

      .cls-2 {
        fill: #4a50fd;
      }

      .cls-3 {
        fill: #fa92ae;
      }

      .cls-5 {
        stroke: none;
      }

      .cls-6 {
        fill: none;
      }
    </style>
  </defs>
  <g id="Grupo_2570" data-name="Grupo 2570" transform="translate(-890 -2102)">
    <g id="Grupo_2546" data-name="Grupo 2546" transform="translate(7938 710)">
      <g id="Elipse_127" data-name="Elipse 127" class="cls-1" transform="translate(-7048 1392)">
        <circle class="cls-5" cx="70" cy="70" r="70"/>
        <circle class="cls-6" cx="70" cy="70" r="69.5"/>
      </g>
      <circle id="Elipse_128" data-name="Elipse 128" class="cls-2" cx="6" cy="6" r="6" transform="translate(-7031 1404)"/>
      <g id="Grupo_2462" data-name="Grupo 2462" transform="translate(-7010.567 1428.684)">
        <rect id="Rectángulo_1945" data-name="Rectángulo 1945" class="cls-3" width="66" height="66" rx="18" transform="translate(-0.434 0.316)"/>
      </g>
      <g id="Grupo_2516" data-name="Grupo 2516" transform="translate(-6924.175 1413.315)">
        <path id="Trazado_8147" data-name="Trazado 8147" class="cls-4" d="M36.606,64.812h-1.3c.03-.391.045-.784.045-1.176A15.268,15.268,0,0,0,28.3,50.757v-1.23A3.531,3.531,0,0,0,24.769,46H15.363a3.531,3.531,0,0,0-3.527,3.527v1.23a15.268,15.268,0,0,0-7.055,12.88c0,.392.016.785.045,1.176h-1.3A3.531,3.531,0,0,0,0,68.34v4.7A3.531,3.531,0,0,0,3.527,76.57H6.083l1.255,1.839a1.176,1.176,0,0,0,1.942,0l1.255-1.839h1.383a15.294,15.294,0,0,0,16.3,0H29.6l1.255,1.839a1.176,1.176,0,0,0,1.942,0L34.05,76.57h2.555a3.531,3.531,0,0,0,3.527-3.527v-4.7A3.531,3.531,0,0,0,36.606,64.812ZM14.188,49.527a1.177,1.177,0,0,1,1.176-1.176h9.406a1.177,1.177,0,0,1,1.176,1.176v4.7a1.177,1.177,0,0,1-1.176,1.176h-3.1a1.176,1.176,0,0,0-.971.513l-.634.929-.634-.929a1.176,1.176,0,0,0-.971-.513h-3.1a1.177,1.177,0,0,1-1.176-1.176ZM9.914,74.218a1.176,1.176,0,0,0-.971.513l-.634.929-.634-.929a1.176,1.176,0,0,0-.971-.513H3.527a1.177,1.177,0,0,1-1.176-1.176v-4.7a1.177,1.177,0,0,1,1.176-1.176h9.485a1.177,1.177,0,0,1,1.176,1.176v4.7a1.177,1.177,0,0,1-1.176,1.176Zm5.435,1.463a3.519,3.519,0,0,0,1.19-2.639v-4.7a3.531,3.531,0,0,0-3.527-3.527H7.186c-.035-.39-.053-.783-.053-1.176a12.986,12.986,0,0,1,4.7-9.976v.569a3.531,3.531,0,0,0,3.527,3.527H17.84L19.1,59.6a1.176,1.176,0,0,0,1.942,0l1.255-1.839h2.477A3.531,3.531,0,0,0,28.3,54.23v-.569A12.986,12.986,0,0,1,33,63.636c0,.392-.018.785-.053,1.176H27.121a3.531,3.531,0,0,0-3.527,3.527v4.7a3.519,3.519,0,0,0,1.19,2.639,12.967,12.967,0,0,1-9.435,0Zm22.432-2.639a1.177,1.177,0,0,1-1.176,1.176H33.429a1.176,1.176,0,0,0-.971.513l-.634.929-.634-.929a1.176,1.176,0,0,0-.971-.513h-3.1a1.177,1.177,0,0,1-1.176-1.176v-4.7a1.177,1.177,0,0,1,1.176-1.176h9.485a1.177,1.177,0,0,1,1.176,1.176Z" transform="translate(-73.892 -15)"/>
      </g>
    </g>
  </g>
</svg>