<svg xmlns="http://www.w3.org/2000/svg" width="140" height="140" viewBox="0 0 140 140">
  <defs>
    <style>
      .cls-1, .cls-4 {
        fill: #fff;
      }

      .cls-1 {
        stroke: #d1d1d1;
      }

      .cls-2 {
        fill: #4a50fd;
      }

      .cls-3 {
        fill: #35c0e4;
      }

      .cls-5 {
        stroke: none;
      }

      .cls-6 {
        fill: none;
      }
    </style>
  </defs>
  <g id="Grupo_2572" data-name="Grupo 2572" transform="translate(-646 -1688)">
    <g id="Grupo_2548" data-name="Grupo 2548" transform="translate(7694 296)">
      <g id="Elipse_127" data-name="Elipse 127" class="cls-1" transform="translate(-7048 1392)">
        <circle class="cls-5" cx="70" cy="70" r="70"/>
        <circle class="cls-6" cx="70" cy="70" r="69.5"/>
      </g>
      <circle id="Elipse_128" data-name="Elipse 128" class="cls-2" cx="6" cy="6" r="6" transform="translate(-7031 1404)"/>
      <g id="Grupo_2462" data-name="Grupo 2462" transform="translate(-7010.567 1428.684)">
        <path id="Trazado_8240" data-name="Trazado 8240" class="cls-3" d="M18,0H48A18,18,0,0,1,66,18V48A18,18,0,0,1,48,66H18A18,18,0,0,1,0,48V18A18,18,0,0,1,18,0Z" transform="translate(-0.434 0.316)"/>
      </g>
    </g>
    <g id="estudiar" transform="translate(695 1734.994)">
      <g id="Grupo_2550" data-name="Grupo 2550" transform="translate(0 0.006)">
        <path id="Trazado_8239" data-name="Trazado 8239" class="cls-4" d="M39.963,22.689V18.744A1.244,1.244,0,0,0,38.719,17.5a37.517,37.517,0,0,0-7.228.66,11.229,11.229,0,0,0-4.669-2.7,8.706,8.706,0,1,0-11.2,0,11.231,11.231,0,0,0-4.669,2.7,37.524,37.524,0,0,0-7.228-.66,1.244,1.244,0,0,0-1.244,1.244v3.945A3.737,3.737,0,0,0,0,26.206v2.487A3.737,3.737,0,0,0,2.487,32.21v3.945A1.244,1.244,0,0,0,3.731,37.4a28.941,28.941,0,0,1,16.8,4.849,1.248,1.248,0,0,0,1.38,0,28.941,28.941,0,0,1,16.8-4.849,1.244,1.244,0,0,0,1.244-1.244V32.21a3.737,3.737,0,0,0,2.487-3.517V26.206A3.737,3.737,0,0,0,39.963,22.689ZM15.007,8.794a6.218,6.218,0,1,1,6.218,6.218A6.267,6.267,0,0,1,15.007,8.794ZM3.731,29.937a1.245,1.245,0,0,1-1.244-1.244V26.206a1.244,1.244,0,1,1,2.487,0v2.487A1.245,1.245,0,0,1,3.731,29.937Zm16.25,9.044A31.117,31.117,0,0,0,4.975,34.929V32.21a3.737,3.737,0,0,0,2.487-3.517V26.206a3.737,3.737,0,0,0-2.487-3.517V20a28.111,28.111,0,0,1,15.007,4.387Zm1.244-16.743a29.556,29.556,0,0,0-7.235-3.326A8.724,8.724,0,0,1,18.738,17.5h4.975a8.724,8.724,0,0,1,4.748,1.411A29.555,29.555,0,0,0,21.225,22.238Zm16.25,12.692a31.119,31.119,0,0,0-15.007,4.052V24.393A28.108,28.108,0,0,1,37.475,20v2.684a3.737,3.737,0,0,0-2.487,3.517v2.487a3.737,3.737,0,0,0,2.487,3.517Zm2.487-6.236a1.244,1.244,0,1,1-2.487,0V26.206a1.244,1.244,0,1,1,2.487,0Z" transform="translate(0 -0.006)"/>
      </g>
    </g>
  </g>
</svg>
