<svg xmlns="http://www.w3.org/2000/svg" width="37.286" height="21.75" viewBox="0 0 37.286 21.75">
  <g id="Icon_ionic-ios-menu" data-name="Icon ionic-ios-menu" transform="translate(-4.5 -10.125)">
    <path id="Trazado_1475" data-name="Trazado 1475" d="M40.232,13.232H6.054A1.558,1.558,0,0,1,4.5,11.679h0a1.558,1.558,0,0,1,1.554-1.554H40.232a1.558,1.558,0,0,1,1.554,1.554h0A1.558,1.558,0,0,1,40.232,13.232Z" transform="translate(0 0)" fill="#4a50fd"/>
    <path id="Trazado_1476" data-name="Trazado 1476" d="M40.232,19.982H6.054A1.558,1.558,0,0,1,4.5,18.429h0a1.558,1.558,0,0,1,1.554-1.554H40.232a1.558,1.558,0,0,1,1.554,1.554h0A1.558,1.558,0,0,1,40.232,19.982Z" transform="translate(0 2.571)" fill="#4a50fd"/>
    <path id="Trazado_1477" data-name="Trazado 1477" d="M40.232,26.732H6.054A1.558,1.558,0,0,1,4.5,25.179h0a1.558,1.558,0,0,1,1.554-1.554H40.232a1.558,1.558,0,0,1,1.554,1.554h0A1.558,1.558,0,0,1,40.232,26.732Z" transform="translate(0 5.143)" fill="#4a50fd"/>
  </g>
</svg>
