<svg xmlns="http://www.w3.org/2000/svg" width="31.921" height="31.921" viewBox="0 0 31.921 31.921">
  <path id="Icon_awesome-user-circle" data-name="Icon awesome-user-circle" d="M15.96.563a15.96,15.96,0,1,0,15.96,15.96A15.958,15.958,0,0,0,15.96.563Zm0,6.178A5.663,5.663,0,1,1,10.3,12.4,5.663,5.663,0,0,1,15.96,6.741Zm0,22.138A12.332,12.332,0,0,1,6.532,24.49a7.175,7.175,0,0,1,6.339-3.848,1.575,1.575,0,0,1,.457.071,8.521,8.521,0,0,0,2.632.444,8.488,8.488,0,0,0,2.632-.444,1.575,1.575,0,0,1,.457-.071,7.175,7.175,0,0,1,6.339,3.848A12.332,12.332,0,0,1,15.96,28.879Z" transform="translate(0 -0.563)" fill="#4a50fd"/>
</svg>
