<svg xmlns="http://www.w3.org/2000/svg" width="342.004" height="82.954" viewBox="0 0 342.004 82.954">
  <defs>
    <style>
      .cls-1, .cls-4 {
        fill: #4a50fd;
      }

      .cls-1 {
        font-size: 44px;
        font-family: "Open Sans", sans-serif;
        font-weight: 800;
      }

      .cls-2 {
        fill: #e8b416;
      }

      .cls-3 {
        fill: #f8b100;
      }
    </style>
  </defs>
  <g id="Grupo_2478" data-name="Grupo 2478" transform="translate(-62.038 -505.091)">
    <g id="Grupo_2476" data-name="Grupo 2476" transform="translate(62.038 505.091)">
      <text id="Workflow" class="cls-1" transform="translate(118.004 69.954)"><tspan x="0" y="0">Work</tspan><tspan class="cls-2" y="0">flow</tspan></text>
      <g id="Grupo_2475" data-name="Grupo 2475">
        <g id="Grupo_2470" data-name="Grupo 2470">
          <path id="Trazado_8125" data-name="Trazado 8125" class="cls-3" d="M121.223,554.508a1.845,1.845,0,0,0,.047-.238V523.635a4.458,4.458,0,0,0-2.863-4.172c-1.912-1.1-21.112-12.172-23.5-13.554a7.033,7.033,0,0,0-7.281.48L63.056,520.57c-.034.02-.052.051-.083.072a1.744,1.744,0,0,0-.206.163,1.841,1.841,0,0,0-.213.208,2,2,0,0,0-.154.193c-.022.031-.053.048-.073.08s-.024.09-.046.132a2.017,2.017,0,0,0-.111.258,1.915,1.915,0,0,0-.071.253,2.221,2.221,0,0,0-.034.269c0,.046-.026.086-.026.134v30.987a4.444,4.444,0,0,0,2.863,4.169c1.912,1.1,21.112,12.177,23.5,13.553a6.109,6.109,0,0,0,3.088.821c.047,0,.091-.012.14-.012a.327.327,0,0,0,.068.013,1.862,1.862,0,0,0,.186-.038,7.909,7.909,0,0,0,3.813-1.267l24.575-14.539c.071-.044.116-.113.182-.163a2.071,2.071,0,0,0,.308-.279,1.953,1.953,0,0,0,.21-.313,1.825,1.825,0,0,0,.167-.35A1.919,1.919,0,0,0,121.223,554.508ZM93.728,567V546.4a2.031,2.031,0,1,0-4.063,0v20.68c-4.537-2.62-22.886-13.2-22.886-13.2a1.23,1.23,0,0,0-.38-.174c-.3-.126-.3-.317-.3-.388v-27.4l17.339,10.392a2,2,0,0,0,1.043.291,2.032,2.032,0,0,0,1.045-3.775L68.078,522.365l21.646-12.5c.053-.031.108-.064.159-.1.017-.012,1.659-1.1,2.988-.335,2.107,1.217,17.268,9.959,22.145,12.771l-17.4,10.023a2.031,2.031,0,1,0,2.027,3.52l17.567-10.114v27.482Z" transform="translate(-62.038 -505.091)"/>
        </g>
        <g id="Grupo_2471" data-name="Grupo 2471" transform="translate(27.583 5.55)">
          <path id="Trazado_8126" data-name="Trazado 8126" class="cls-3" d="M101.747,531.692a2.03,2.03,0,0,0,2.031-2.031V514.7a2.032,2.032,0,0,0-4.065,0v14.963A2.032,2.032,0,0,0,101.747,531.692Z" transform="translate(-99.713 -512.672)"/>
        </g>
        <g id="Grupo_2472" data-name="Grupo 2472" transform="translate(25.983 29.475)">
          <path id="Trazado_8127" data-name="Trazado 8127" class="cls-3" d="M101.23,545.35a3.7,3.7,0,1,0,3.7,3.7A3.7,3.7,0,0,0,101.23,545.35Z" transform="translate(-97.527 -545.35)"/>
        </g>
        <g id="Grupo_2473" data-name="Grupo 2473" transform="translate(36.856 36.178)">
          <path id="Trazado_8128" data-name="Trazado 8128" class="cls-3" d="M128.234,562.6l-12.765-7.8a2.034,2.034,0,0,0-2.119,3.472l12.77,7.792a1.989,1.989,0,0,0,1.054.3,2.031,2.031,0,0,0,1.06-3.766Z" transform="translate(-112.378 -554.506)"/>
        </g>
        <g id="Grupo_2474" data-name="Grupo 2474" transform="translate(5.26 36.555)">
          <path id="Trazado_8129" data-name="Trazado 8129" class="cls-3" d="M82.963,555.319l-12.767,7.8a2.032,2.032,0,0,0,2.119,3.467l12.768-7.8a2.032,2.032,0,1,0-2.12-3.468Z" transform="translate(-69.222 -555.021)"/>
        </g>
      </g>
    </g>
    <g id="Grupo_2477" data-name="Grupo 2477" transform="translate(108.405 536.506)">
      <path id="Trazado_8130" data-name="Trazado 8130" class="cls-4" d="M128.212,565.737h16.25a.743.743,0,0,0,.743-.743v-16.25a.743.743,0,0,0-.743-.743h-16.25a.743.743,0,0,0-.743.743v16.25A.743.743,0,0,0,128.212,565.737Z" transform="translate(-125.932 -548)"/>
      <path id="Trazado_8131" data-name="Trazado 8131" class="cls-4" d="M136.3,586.792a.743.743,0,0,0-1.051,0l-9.662,9.663a.742.742,0,0,0,0,1.051l9.662,9.663a.743.743,0,0,0,1.051,0l9.663-9.663a.743.743,0,0,0,0-1.051Z" transform="translate(-125.369 -558.333)"/>
      <path id="Trazado_8132" data-name="Trazado 8132" class="cls-4" d="M170.049,565.723h9.357a.743.743,0,0,0,.644-.372l4.679-8.1a.744.744,0,0,0,0-.743l-4.679-8.1a.743.743,0,0,0-.644-.372h-9.357a.744.744,0,0,0-.644.372l-4.678,8.1a.744.744,0,0,0,0,.743l4.678,8.1A.745.745,0,0,0,170.049,565.723Z" transform="translate(-135.886 -548.008)"/>
      <path id="Trazado_8133" data-name="Trazado 8133" class="cls-4" d="M175.857,587.883a9.448,9.448,0,1,0,9.449,9.448A9.459,9.459,0,0,0,175.857,587.883Z" transform="translate(-136.363 -558.683)"/>
      <path id="Trazado_8134" data-name="Trazado 8134" class="cls-4" d="M138.377,573.683a.52.52,0,0,0-.521.521v6.837a.52.52,0,0,0,.521.521h1.189a.52.52,0,0,0,.52-.521V574.2a.52.52,0,0,0-.52-.521Z" transform="translate(-128.714 -554.88)"/>
      <path id="Trazado_8135" data-name="Trazado 8135" class="cls-4" d="M178.109,574.022a.521.521,0,0,0-.521.521v6.837a.521.521,0,0,0,.521.521H179.3a.52.52,0,0,0,.521-.521v-6.837a.52.52,0,0,0-.521-.521Z" transform="translate(-139.357 -554.971)"/>
      <path id="Trazado_8136" data-name="Trazado 8136" class="cls-4" d="M160,558.829h-5.191a.52.52,0,0,0-.521.521v1.189a.521.521,0,0,0,.521.521H160a.521.521,0,0,0,.52-.521V559.35A.52.52,0,0,0,160,558.829Z" transform="translate(-133.117 -550.901)"/>
    </g>
  </g>
</svg>
