<svg xmlns="http://www.w3.org/2000/svg" width="78" height="78" viewBox="0 0 78 78">
  <defs>
    <style>
      .cls-1 {
        fill: #20aae8;
      }

      .cls-2 {
        fill: none;
        stroke: #7393fe;
        stroke-linecap: round;
        stroke-linejoin: round;
        stroke-width: 5px;
      }

      .cls-3 {
        fill: #fff;
      }
    </style>
  </defs>
  <g id="Grupo_2609" data-name="Grupo 2609" transform="translate(-160 -2924)">
    <g id="Grupo_2420" data-name="Grupo 2420" transform="translate(159.715 2923.714)">
      <rect id="Rectángulo_1945" data-name="Rectángulo 1945" class="cls-1" width="78" height="78" rx="18" transform="translate(0.285 0.286)"/>
      <g id="Icon_feather-user" data-name="Icon feather-user" transform="translate(23.49 21.234)">
        <path id="Trazado_8099" data-name="Trazado 8099" class="cls-2" d="M37.159,34.184V30.29a7.79,7.79,0,0,0-7.79-7.79H13.79A7.79,7.79,0,0,0,6,30.29v3.895" transform="translate(-6 0.869)"/>
        <path id="Trazado_8100" data-name="Trazado 8100" class="cls-2" d="M27.579,12.29A7.79,7.79,0,1,1,19.79,4.5,7.79,7.79,0,0,1,27.579,12.29Z" transform="translate(-4.21 -4.5)"/>
      </g>
    </g>
    <g id="documents" transform="translate(178.93 2940.835)">
      <g id="Grupo_2445" data-name="Grupo 2445" transform="translate(0 0)">
        <path id="Trazado_8109" data-name="Trazado 8109" class="cls-3" d="M44.952,26.25a.884.884,0,0,0-.86-.68,15.821,15.821,0,0,1-5.19-1.393V20.34a2.655,2.655,0,0,0-2.652-2.652H34.48V1.773A1.77,1.77,0,0,0,32.712,0H6.189A1.77,1.77,0,0,0,4.421,1.773v10.61H1.768A1.77,1.77,0,0,0,0,14.151V39.791a2.655,2.655,0,0,0,2.652,2.652H31.37A20.3,20.3,0,0,0,35.1,45.155a.885.885,0,0,0,.877,0,17.454,17.454,0,0,0,8.935-11.979,17.729,17.729,0,0,0,.036-6.927ZM6.189,1.773H32.712V17.688H17.4l-1.482-3.7a2.479,2.479,0,0,0-2.288-1.6H6.189ZM1.768,39.791v-.884h4.6a.884.884,0,1,0,0-1.768h-4.6V14.151H13.626a.737.737,0,0,1,.647.488l1.7,4.261a.884.884,0,0,0,.821.556h19.45a.885.885,0,0,1,.884.884v2.931a5.562,5.562,0,0,1-.97-.731.884.884,0,0,0-1.243,0c-1.45,1.434-5.964,3.03-7.928,3.03a.884.884,0,0,0-.86.68,17.728,17.728,0,0,0,.037,6.927,16.928,16.928,0,0,0,3.531,7.5H2.652A.885.885,0,0,1,1.768,39.791ZM43.18,32.834a15.494,15.494,0,0,1-7.639,10.529A15.5,15.5,0,0,1,27.917,32.9a16.936,16.936,0,0,1-.176-5.612,19.259,19.259,0,0,0,7.8-2.968,19.257,19.257,0,0,0,7.8,2.968,16.845,16.845,0,0,1-.163,5.542Z" transform="translate(0 -0.005)"/>
        <path id="Trazado_8110" data-name="Trazado 8110" class="cls-3" d="M97.385,41.774h20.069a.884.884,0,0,0,0-1.768H97.385a.884.884,0,0,0,0,1.768Z" transform="translate(-87.969 -36.469)"/>
        <path id="Trazado_8111" data-name="Trazado 8111" class="cls-3" d="M118.338,80.89a.884.884,0,0,0-.884-.884H97.385a.884.884,0,0,0,0,1.768h20.069A.884.884,0,0,0,118.338,80.89Z" transform="translate(-87.969 -72.933)"/>
        <path id="Trazado_8112" data-name="Trazado 8112" class="cls-3" d="M220.919,120.006H210.884a.884.884,0,0,0,0,1.768h10.035a.884.884,0,0,0,0-1.768Z" transform="translate(-191.434 -109.397)"/>
        <path id="Trazado_8113" data-name="Trazado 8113" class="cls-3" d="M270.6,160.006h-5.216a.884.884,0,0,0,0,1.768H270.6a.884.884,0,1,0,0-1.768Z" transform="translate(-241.115 -145.86)"/>
        <path id="Trazado_8114" data-name="Trazado 8114" class="cls-3" d="M343.9,327.6a2.635,2.635,0,0,0-1.875.777l-2.44,2.44-.415-.415a2.652,2.652,0,0,0-3.751,3.751l2.29,2.29a2.655,2.655,0,0,0,3.751,0l4.315-4.315A2.652,2.652,0,0,0,343.9,327.6Zm.625,3.277-4.315,4.316a.885.885,0,0,1-1.25,0l-2.29-2.29a.884.884,0,1,1,1.25-1.25l1.04,1.04a.884.884,0,0,0,1.25,0l3.065-3.065a.884.884,0,0,1,1.25,1.25Z" transform="translate(-305.06 -298.64)"/>
        <path id="Trazado_8115" data-name="Trazado 8115" class="cls-3" d="M107.877,420.01a.884.884,0,1,0,0,1.768h0a.884.884,0,1,0,0-1.768Z" transform="translate(-97.534 -382.877)"/>
      </g>
    </g>
  </g>
</svg>
