<svg xmlns="http://www.w3.org/2000/svg" width="78" height="78" viewBox="0 0 78 78">
  <defs>
    <style>
      .cls-1 {
        fill: #f1ab48;
      }

      .cls-2 {
        fill: #fff;
      }
    </style>
  </defs>
  <g id="Grupo_2610" data-name="Grupo 2610" transform="translate(-160 -3052)">
    <g id="Grupo_2420" data-name="Grupo 2420" transform="translate(159.715 3052.286)">
      <rect id="Rectángulo_1945" data-name="Rectángulo 1945" class="cls-1" width="78" height="78" rx="18" transform="translate(0.285 -0.286)"/>
    </g>
    <g id="surface1" transform="translate(184.045 3067.877)">
      <path id="Trazado_8116" data-name="Trazado 8116" class="cls-2" d="M24.332.342A1.07,1.07,0,0,0,23.563,0H6.311A5.836,5.836,0,0,0,.5,5.8V38.423a5.836,5.836,0,0,0,5.811,5.8H29.726a5.836,5.836,0,0,0,5.811-5.8v-25.9a1.15,1.15,0,0,0-.31-.748Zm.31,3.429,7.3,7.659H27.195a2.544,2.544,0,0,1-2.553-2.542Zm5.085,38.317H6.311a3.7,3.7,0,0,1-3.675-3.664V5.8A3.7,3.7,0,0,1,6.311,2.136H22.505V8.888a4.673,4.673,0,0,0,4.69,4.679H33.4V38.423A3.693,3.693,0,0,1,29.726,42.087Zm0,0" transform="translate(-0.5)"/>
      <path id="Trazado_8117" data-name="Trazado 8117" class="cls-2" d="M107.823,401.934H90.24a1.068,1.068,0,1,0,0,2.136h17.594a1.068,1.068,0,1,0-.011-2.136Zm0,0" transform="translate(-81.513 -367.217)"/>
      <path id="Trazado_8118" data-name="Trazado 8118" class="cls-2" d="M125.163,186.47a1.06,1.06,0,0,0,1.56,0l6.26-6.719a1.066,1.066,0,0,0-1.559-1.453l-4.412,4.732V171.365a1.068,1.068,0,0,0-2.136,0V183.03l-4.4-4.732a1.066,1.066,0,0,0-1.559,1.453Zm0,0" transform="translate(-108.425 -155.588)"/>
    </g>
  </g>
</svg>
