<svg xmlns="http://www.w3.org/2000/svg" width="78" height="79" viewBox="0 0 78 79">
  <defs>
    <style>
      .cls-1 {
        fill: #fd612c;
      }

      .cls-2 {
        fill: #fff;
      }
    </style>
  </defs>
  <g id="Grupo_2611" data-name="Grupo 2611" transform="translate(-160 -3179)">
    <g id="Grupo_2420" data-name="Grupo 2420" transform="translate(159.715 3179.143)">
      <rect id="Rectángulo_1945" data-name="Rectángulo 1945" class="cls-1" width="78" height="79" rx="18" transform="translate(0.285 -0.143)"/>
    </g>
    <g id="XMLID_1096_" transform="translate(178.181 3201.495)">
      <g id="XMLID_133_" transform="translate(0)">
        <path id="XMLID_149_" class="cls-2" d="M40.025,0H.8A.8.8,0,0,0,0,.8V33.646a.8.8,0,0,0,.8.8H23.342l3.452,5.98a.8.8,0,0,0,1.089.292l5-2.884a.8.8,0,0,0,.292-1.089l-1.327-2.3h8.182a.8.8,0,0,0,.8-.8V.8A.8.8,0,0,0,40.025,0Zm-.8,1.595V6.378H1.595V1.595ZM27.777,38.936,23.634,31.76a.8.8,0,0,0-1.089-.292l-1.336.771V23.387l7.666,4.426-1.336.771a.8.8,0,0,0-.292,1.089l4.143,7.176Zm3.146-6.087-1.9-3.283L30.869,28.5a.8.8,0,0,0,0-1.381l-.853-.492h4.747a.8.8,0,0,0,.8-.8V14.989a.8.8,0,0,0-.8-.8H24a.8.8,0,1,0,0,1.595h9.966v9.249H27.254l-6.444-3.72a.8.8,0,0,0-1.2.69v3.03H6.857V15.787h9.966a.8.8,0,0,0,0-1.595H6.06a.8.8,0,0,0-.8.8V25.833a.8.8,0,0,0,.8.8H19.614v6.219H1.595V7.973H39.228V32.849Z"/>
        <path id="XMLID_152_" class="cls-2" d="M54.8,41.595a.8.8,0,1,0-.564-.234A.8.8,0,0,0,54.8,41.595Z" transform="translate(-49.695 -36.811)"/>
        <path id="XMLID_153_" class="cls-2" d="M102.8,41.595a.8.8,0,1,0-.564-.234A.8.8,0,0,0,102.8,41.595Z" transform="translate(-93.867 -36.811)"/>
        <path id="XMLID_1077_" class="cls-2" d="M150.8,41.595a.8.8,0,1,0-.564-.234A.8.8,0,0,0,150.8,41.595Z" transform="translate(-138.04 -36.811)"/>
        <path id="XMLID_1087_" class="cls-2" d="M246.8,41.595h15.268a.8.8,0,1,0,0-1.595H246.8a.8.8,0,1,0,0,1.595Z" transform="translate(-226.386 -36.811)"/>
        <path id="XMLID_1088_" class="cls-2" d="M246.8,178a.8.8,0,1,0,.564.234A.8.8,0,0,0,246.8,178Z" transform="translate(-226.386 -163.808)"/>
      </g>
    </g>
  </g>
</svg>
