<svg xmlns="http://www.w3.org/2000/svg" width="78" height="79" viewBox="0 0 78 79">
  <defs>
    <style>
      .cls-1 {
        fill: #67d173;
      }

      .cls-2 {
        fill: #fff;
      }
    </style>
  </defs>
  <g id="Grupo_2612" data-name="Grupo 2612" transform="translate(-160 -3308)">
    <g id="Grupo_2420" data-name="Grupo 2420" transform="translate(159.715 3307.714)">
      <rect id="Rectángulo_1945" data-name="Rectángulo 1945" class="cls-1" width="78" height="79" rx="18" transform="translate(0.285 0.286)"/>
    </g>
    <path id="blockchain" class="cls-2" d="M46.135,25.467,35.815,20.35V7.371c0-.008,0-.016,0-.025a1.371,1.371,0,0,0-.749-1.2l-.01-.006L24.064.646a1.375,1.375,0,0,0-1.229,0c-2.384,1.192-10.919,5.459-11,5.5a1.376,1.376,0,0,0-.75,1.223V20.35L.764,25.467A1.379,1.379,0,0,0,0,26.7V40.529A1.374,1.374,0,0,0,.764,41.76l11.083,5.5.022.01a1.375,1.375,0,0,0,1.2-.011l10.377-5.189,10.377,5.189a1.376,1.376,0,0,0,1.2.011l.022-.01,11.083-5.5a1.374,1.374,0,0,0,.764-1.231V26.7a1.378,1.378,0,0,0-.764-1.231Zm-33.68,5.192L4.467,26.7l7.988-3.961L20.377,26.7ZM24.823,13.716l8.244-4.122V20.353l-8.244,4.122ZM22.075,24.475l-8.244-4.122V9.594l8.244,4.122Zm2.748,4.446,8.244,4.122V43.8L24.823,39.68Zm9.62,1.738L26.522,26.7l7.922-3.961L42.432,26.7ZM23.449,3.411l7.92,3.96-7.92,3.96-7.92-3.96Zm-20.7,25.5,8.335,4.133V43.81L2.748,39.677ZM22.075,39.68,13.832,43.8V33.043l8.244-4.122Zm22.075,0L35.815,43.81V33.046l8.335-4.133Zm0,0" transform="translate(175.143 3322.076)"/>
  </g>
</svg>
