<svg xmlns="http://www.w3.org/2000/svg" width="78" height="79" viewBox="0 0 78 79">
  <defs>
    <style>
      .cls-1 {
        fill: #e8b416;
      }

      .cls-2 {
        fill: #fff;
      }
    </style>
  </defs>
  <g id="Grupo_2614" data-name="Grupo 2614" transform="translate(-160 -3568)">
    <g id="Grupo_2420" data-name="Grupo 2420" transform="translate(159.715 3567.714)">
      <rect id="Rectángulo_1945" data-name="Rectángulo 1945" class="cls-1" width="78" height="79" rx="18" transform="translate(0.285 0.286)"/>
    </g>
    <g id="seal" transform="translate(180.232 3588.261)">
      <path id="Trazado_8160" data-name="Trazado 8160" class="cls-2" d="M36.022,14.7A8.635,8.635,0,0,1,34.6,12.725a9.062,9.062,0,0,1-.433-2.518c-.134-1.586-.287-3.383-1.509-4.6S29.644,4.23,28.059,4.1a9.063,9.063,0,0,1-2.519-.433,8.635,8.635,0,0,1-1.978-1.419C22.33,1.192,20.935,0,19.133,0s-3.2,1.192-4.429,2.243a8.635,8.635,0,0,1-1.978,1.419,9.062,9.062,0,0,1-2.518.433C8.622,4.23,6.824,4.383,5.6,5.6S4.23,8.622,4.1,10.206a9.063,9.063,0,0,1-.433,2.519A8.635,8.635,0,0,1,2.243,14.7C1.192,15.935,0,17.331,0,19.133s1.192,3.2,2.243,4.429A8.635,8.635,0,0,1,3.662,25.54,9.062,9.062,0,0,1,4.1,28.058c.134,1.586.287,3.383,1.509,4.6s3.018,1.374,4.6,1.509a9.063,9.063,0,0,1,2.519.433A8.635,8.635,0,0,1,14.7,36.022c1.232,1.051,2.627,2.243,4.429,2.243s3.2-1.192,4.429-2.243A8.635,8.635,0,0,1,25.54,34.6a9.063,9.063,0,0,1,2.518-.433c1.586-.134,3.383-.287,4.6-1.509s1.374-3.018,1.509-4.6A9.063,9.063,0,0,1,34.6,25.54a8.635,8.635,0,0,1,1.419-1.978c1.051-1.232,2.243-2.627,2.243-4.429S37.073,15.935,36.022,14.7ZM34.2,22.009a10.346,10.346,0,0,0-1.809,2.616,10.823,10.823,0,0,0-.606,3.231c-.11,1.292-.214,2.512-.817,3.114s-1.823.707-3.114.817a10.823,10.823,0,0,0-3.231.606A10.346,10.346,0,0,0,22.009,34.2c-1.007.859-1.957,1.671-2.876,1.671s-1.87-.812-2.876-1.671a10.346,10.346,0,0,0-2.616-1.809,10.823,10.823,0,0,0-3.231-.606c-1.292-.11-2.512-.214-3.114-.817s-.707-1.823-.817-3.114a10.823,10.823,0,0,0-.606-3.231,10.346,10.346,0,0,0-1.809-2.616C3.2,21,2.392,20.052,2.392,19.133s.812-1.87,1.671-2.876a10.346,10.346,0,0,0,1.809-2.616,10.824,10.824,0,0,0,.606-3.231C6.587,9.118,6.691,7.9,7.3,7.3s1.823-.707,3.114-.817a10.823,10.823,0,0,0,3.231-.606,10.346,10.346,0,0,0,2.616-1.809c1.007-.859,1.957-1.671,2.876-1.671S21,3.2,22.009,4.063a10.346,10.346,0,0,0,2.616,1.809,10.824,10.824,0,0,0,3.231.606c1.292.11,2.512.214,3.114.817s.707,1.823.817,3.114a10.823,10.823,0,0,0,.606,3.231A10.346,10.346,0,0,0,34.2,16.257c.859,1.007,1.671,1.957,1.671,2.876S35.062,21,34.2,22.009Z" transform="translate(0 0)"/>
      <path id="Trazado_8161" data-name="Trazado 8161" class="cls-2" d="M11.958,0A11.972,11.972,0,0,0,0,11.958H2.392a9.577,9.577,0,0,1,9.566-9.566Z" transform="translate(7.175 7.175)"/>
      <path id="Trazado_8162" data-name="Trazado 8162" class="cls-2" d="M0,9.566v2.392A11.972,11.972,0,0,0,11.958,0H9.566A9.577,9.577,0,0,1,0,9.566Z" transform="translate(19.133 19.133)"/>
    </g>
  </g>
</svg>
