<svg xmlns="http://www.w3.org/2000/svg" width="78" height="78" viewBox="0 0 78 78">
  <defs>
    <style>
      .cls-1 {
        fill: #fa92ae;
      }

      .cls-2 {
        fill: #fff;
      }
    </style>
  </defs>
  <g id="Grupo_2615" data-name="Grupo 2615" transform="translate(-620 -2924)">
    <g id="Grupo_2420" data-name="Grupo 2420" transform="translate(619.715 2923.714)">
      <rect id="Rectángulo_1945" data-name="Rectángulo 1945" class="cls-1" width="78" height="78" rx="18" transform="translate(0.285 0.286)"/>
    </g>
    <g id="stamp" transform="translate(942.296 2937.44)">
      <g id="Grupo_2446" data-name="Grupo 2446" transform="translate(-305.068 1)">
        <path id="Trazado_8119" data-name="Trazado 8119" class="cls-2" d="M66.63,31.458H59.5V30.032a4.283,4.283,0,0,0-2.648-3.954,30.732,30.732,0,0,1,4.194-11.164,9.985,9.985,0,1,0-16.883.741,25.657,25.657,0,0,1,3.728,10.423,4.283,4.283,0,0,0-2.648,3.954v1.426H38.116a7.137,7.137,0,0,0-7.129,7.129v2.947a1.426,1.426,0,0,0,1.426,1.426h1.426v1.426a4.282,4.282,0,0,0,4.277,4.277H66.63a4.282,4.282,0,0,0,4.277-4.277V42.959h1.426a1.426,1.426,0,0,0,1.426-1.426V38.587A7.137,7.137,0,0,0,66.63,31.458ZM46.509,14.032a7.128,7.128,0,1,1,12.062-.53,33.533,33.533,0,0,0-4.554,12.253H50.729A28.5,28.5,0,0,0,46.509,14.032Zm10.141,16v1.426H48.1V30.032a1.427,1.427,0,0,1,1.426-1.426h5.7A1.427,1.427,0,0,1,56.65,30.032ZM68.056,44.385A1.427,1.427,0,0,1,66.63,45.81H38.116a1.427,1.427,0,0,1-1.426-1.426V42.959H68.056Zm2.851-4.277H33.839V38.587a4.282,4.282,0,0,1,4.277-4.277H66.63a4.282,4.282,0,0,1,4.277,4.277Z" transform="translate(-30.987 0)"/>
      </g>
    </g>
  </g>
</svg>
