<svg xmlns="http://www.w3.org/2000/svg" width="78" height="78" viewBox="0 0 78 78">
  <defs>
    <style>
      .cls-1 {
        fill: #42c8af;
      }

      .cls-2 {
        fill: #fff;
      }
    </style>
  </defs>
  <g id="Grupo_2616" data-name="Grupo 2616" transform="translate(-620 -3052)">
    <g id="Grupo_2420" data-name="Grupo 2420" transform="translate(619.715 3052.286)">
      <rect id="Rectángulo_1945" data-name="Rectángulo 1945" class="cls-1" width="78" height="78" rx="18" transform="translate(0.285 -0.286)"/>
    </g>
    <g id="notification" transform="translate(641.142 3068.394)">
      <path id="Trazado_8120" data-name="Trazado 8120" class="cls-2" d="M63.812,22.7V18.566a13.408,13.408,0,0,0-9.5-12.808V3.886a3.886,3.886,0,1,0-7.772,0V5.757a13.408,13.408,0,0,0-9.5,12.808V22.7a20.338,20.338,0,0,1-5.684,14.141,1.3,1.3,0,0,0,.935,2.192H44.082a6.477,6.477,0,0,0,12.692,0H68.562a1.3,1.3,0,0,0,.935-2.192A20.338,20.338,0,0,1,63.812,22.7ZM49.133,3.886a1.3,1.3,0,0,1,2.591,0V5.244c-.426-.041-.858-.063-1.3-.063s-.869.022-1.3.063Zm1.3,37.735a3.892,3.892,0,0,1-3.663-2.591h7.326A3.892,3.892,0,0,1,50.428,41.621ZM35.086,36.44A22.9,22.9,0,0,0,39.634,22.7V18.566a10.794,10.794,0,0,1,21.588,0V22.7A22.9,22.9,0,0,0,65.77,36.44Z" transform="translate(-30.999)"/>
      <path id="Trazado_8121" data-name="Trazado 8121" class="cls-2" d="M394.8,65.625a1.3,1.3,0,0,0,2.591,0A19.3,19.3,0,0,0,391.7,51.886a1.3,1.3,0,0,0-1.832,1.832A16.728,16.728,0,0,1,394.8,65.625Z" transform="translate(-358.536 -47.059)"/>
      <path id="Trazado_8122" data-name="Trazado 8122" class="cls-2" d="M32.3,66.921a1.3,1.3,0,0,0,1.3-1.3,16.729,16.729,0,0,1,4.932-11.907,1.3,1.3,0,0,0-1.832-1.832A19.3,19.3,0,0,0,31,65.625,1.3,1.3,0,0,0,32.3,66.921Z" transform="translate(-31 -47.06)"/>
    </g>
  </g>
</svg>
