<svg xmlns="http://www.w3.org/2000/svg" width="78" height="79" viewBox="0 0 78 79">
  <defs>
    <style>
      .cls-1 {
        fill: #aa62e3;
      }

      .cls-2 {
        fill: #fff;
      }
    </style>
  </defs>
  <g id="Grupo_2617" data-name="Grupo 2617" transform="translate(-620 -3179)">
    <g id="Grupo_2420" data-name="Grupo 2420" transform="translate(619.715 3179.143)">
      <rect id="Rectángulo_1945" data-name="Rectángulo 1945" class="cls-1" width="78" height="79" rx="18" transform="translate(0.285 -0.143)"/>
    </g>
    <path id="user_1_" data-name="user (1)" class="cls-2" d="M35.145,6.03A20.588,20.588,0,0,0,6.029,35.145,20.588,20.588,0,0,0,35.145,6.03ZM10.321,35.577a10.425,10.425,0,0,1,20.533,0,18.135,18.135,0,0,1-20.533,0ZM14.041,18a6.546,6.546,0,1,1,6.546,6.546A6.553,6.553,0,0,1,14.041,18Zm18.9,15.9a12.857,12.857,0,0,0-7.475-8.392,8.959,8.959,0,1,0-9.763,0A12.856,12.856,0,0,0,8.231,33.9a18.175,18.175,0,1,1,24.712,0Zm0,0" transform="translate(638.825 3197.413)"/>
  </g>
</svg>
