<svg xmlns="http://www.w3.org/2000/svg" width="48.694" height="48.694" viewBox="0 0 48.694 48.694">
  <defs>
    <style>
      .cls-1 {
        fill: #d63939;
      }
    </style>
  </defs>
  <g id="responsive-webpage" transform="translate(0)">
    <path id="Trazado_2386" data-name="Trazado 2386" class="cls-1" d="M18.26,7H4.058A4.057,4.057,0,0,0,0,11.058V37.434a4.057,4.057,0,0,0,4.058,4.058h14.2a4.057,4.057,0,0,0,4.058-4.058V11.058A4.057,4.057,0,0,0,18.26,7Zm0,30.434H4.058V12.072a1.015,1.015,0,0,1,1.014-1.014H6.087a2.03,2.03,0,0,0,2.029,2.029H14.2a2.03,2.03,0,0,0,2.029-2.029h1.014a1.015,1.015,0,0,1,1.014,1.014Z" transform="translate(0 7.203)"/>
    <path id="Trazado_2387" data-name="Trazado 2387" class="cls-1" d="M23.5,10.559a2.031,2.031,0,0,0-2.869.037l-2.928,3-1.1-1.1A1.522,1.522,0,0,0,14,13.568V18.64a1.522,1.522,0,0,0,1.522,1.522h5.072a1.521,1.521,0,0,0,1.075-2.6l-1.1-1.1,2.962-3.037a2.031,2.031,0,0,0-.034-2.871Z" transform="translate(14.405 10.272)"/>
    <path id="Trazado_2388" data-name="Trazado 2388" class="cls-1" d="M42.608,0H6.087A6.1,6.1,0,0,0,0,6.087V11.24a8.094,8.094,0,0,1,4.058-1.1H44.636v28.4a2.035,2.035,0,0,1-2.029,2.029H26.376v4.058H42.608a6.1,6.1,0,0,0,6.087-6.087V6.087A6.1,6.1,0,0,0,42.608,0Z" transform="translate(0)"/>
  </g>
</svg>
