<svg xmlns="http://www.w3.org/2000/svg" width="58.752" height="58.752" viewBox="0 0 58.752 58.752">
  <defs>
    <style>
      .cls-1 {
        fill: #e67e2e;
      }
    </style>
  </defs>
  <g id="puzzle" transform="translate(0)">
    <path id="Trazado_2384" data-name="Trazado 2384" class="cls-1" d="M194.567,32.852a3.864,3.864,0,0,1-6.375.813A3.863,3.863,0,0,1,189,27.289a10.4,10.4,0,0,0,2.242-1.484l-7-7,7-7a10.391,10.391,0,0,1,1.484,2.243,3.864,3.864,0,0,0,6.376.811,3.864,3.864,0,0,0-.811-6.376A10.414,10.414,0,0,1,196.053,7l7-7,7,7a10.414,10.414,0,0,0,1.484-2.242,3.864,3.864,0,0,1,6.375-.813,3.864,3.864,0,0,1-.813,6.375,10.414,10.414,0,0,0-2.242,1.484l7,7-7,7a10.414,10.414,0,0,1-1.484-2.242A3.864,3.864,0,0,0,207,22.75a3.864,3.864,0,0,0,.811,6.376,10.394,10.394,0,0,1,2.242,1.484l-7,7-7-7a10.4,10.4,0,0,0-1.484,2.242Zm0,0" transform="translate(-163.104 0)"/>
    <path id="Trazado_2385" data-name="Trazado 2385" class="cls-1" d="M7,196.05a10.413,10.413,0,0,0-2.242-1.484,3.864,3.864,0,0,1-.813-6.375A3.864,3.864,0,0,1,10.32,189a10.392,10.392,0,0,0,1.484,2.242l7-7,4.157,4.157q-.212.182-.411.38a7.167,7.167,0,0,0,.2,10.325,7.167,7.167,0,0,0,10.325.2q.2-.2.38-.411l4.158,4.158-7,7a10.4,10.4,0,0,0,2.242,1.484,3.863,3.863,0,0,1,.813,6.375,3.863,3.863,0,0,1-6.375-.813,10.414,10.414,0,0,0-1.484-2.242l-7,7-7-7a10.392,10.392,0,0,1,2.242-1.484A3.864,3.864,0,0,0,14.86,207a3.864,3.864,0,0,0-6.376.811A10.414,10.414,0,0,1,7,210.05l-7-7Zm0,0" transform="translate(0 -163.104)"/>
  </g>
</svg>
