<svg xmlns="http://www.w3.org/2000/svg" width="45.027" height="51.809" viewBox="0 0 45.027 51.809">
  <defs>
    <style>
      .cls-1 {
        fill: #61cd73;
      }
    </style>
  </defs>
  <g id="network" transform="translate(0)">
    <g id="Grupo_2219" data-name="Grupo 2219" transform="translate(0 0)">
      <path id="Trazado_2383" data-name="Trazado 2383" class="cls-1" d="M57.743,28l5.181,1.028a4.6,4.6,0,1,0,.394-1.963L58,26.006a7.54,7.54,0,0,0-2.113-5.213l6.88-9.719a5.818,5.818,0,1,0-1.633-1.158l-6.814,9.625a7.552,7.552,0,0,0-9.572,1.5L35.806,14.1a4.612,4.612,0,1,0-1.288,1.535l9.118,7.081a7.553,7.553,0,0,0,1.877,9.062l-5.541,7.834A6.214,6.214,0,1,0,41.5,40.915l5.691-8.048a7.56,7.56,0,0,0,6.183.139l6.752,9.974a5.233,5.233,0,1,0,1.629-1.165L55.1,31.985A7.586,7.586,0,0,0,57.743,28Z" transform="translate(-27.101 0)"/>
    </g>
  </g>
</svg>
