<svg xmlns="http://www.w3.org/2000/svg" width="51.055" height="51.026" viewBox="0 0 51.055 51.026">
  <defs>
    <style>
      .cls-1 {
        fill: #e8b416;
      }
    </style>
  </defs>
  <path id="cloud-computing" class="cls-1" d="M32.524,43.661h18.53V9.124h-12.2a6.017,6.017,0,0,0-5.816-4.5H31.344a6.017,6.017,0,0,0-11.633,0H18.019a6.017,6.017,0,0,0-5.816,4.5H0V43.661H18.841c1.007,2.62.713,3.814.275,4.5h-4.1v3H36.039v-3H32.226C31.527,47.279,31.369,46.462,32.524,43.661ZM18.019,7.623h4.5v-1.5a3,3,0,0,1,6.006,0v1.5h4.5a3,3,0,0,1,0,6.006H18.019A3,3,0,0,1,18.019,7.623Zm9.01,19.521a1.5,1.5,0,1,1-1.5-1.5A1.5,1.5,0,0,1,27.029,27.143ZM12.2,12.127a6.029,6.029,0,0,0,4.315,4.315V20.12l-2.624,1.05a4.5,4.5,0,1,0,1.118,2.787l4.509-1.8V16.632h4.5V22.9a4.5,4.5,0,1,0,3,0V16.632h4.5v5.521l4.509,1.8a4.5,4.5,0,1,0,1.118-2.787l-2.624-1.05V16.442a6.029,6.029,0,0,0,4.315-4.315h9.2V34.651H3V12.127h9.2Zm-.19,12.013a1.5,1.5,0,1,1-1.5-1.5A1.5,1.5,0,0,1,12.013,24.14Zm27.029,0a1.5,1.5,0,1,1,1.5,1.5A1.5,1.5,0,0,1,39.042,24.14ZM3,37.655H48.051v3H3ZM22.34,48.166a8.143,8.143,0,0,0-.318-4.5h7.3a7.229,7.229,0,0,0-.448,4.5Z" transform="translate(0 -0.143)"/>
</svg>
