<svg xmlns="http://www.w3.org/2000/svg" width="24.448" height="26.926" viewBox="0 0 24.448 26.926">
  <defs>
    <style>
      .cls-1 {
        fill: #2e4765;
      }
    </style>
  </defs>
  <path id="Icon_material-phonelink-ring" data-name="Icon material-phonelink-ring" class="cls-1" d="M25.153,9.7l-1.224,1.224a5.614,5.614,0,0,1,0,7.955L25.153,20.1a7.042,7.042,0,0,0,0-10.4Zm-2.57,2.57-1.224,1.224a2.388,2.388,0,0,1,0,2.815l1.224,1.224a3.693,3.693,0,0,0,0-5.263ZM17.687,1.5H5.448A2.455,2.455,0,0,0,3,3.948v22.03a2.455,2.455,0,0,0,2.448,2.448H17.687a2.455,2.455,0,0,0,2.448-2.448V3.948A2.455,2.455,0,0,0,17.687,1.5Zm0,23.254H5.448V5.172H17.687Z" transform="translate(-3 -1.5)"/>
</svg>
