<svg xmlns="http://www.w3.org/2000/svg" width="22.03" height="22.03" viewBox="0 0 22.03 22.03">
  <defs>
    <style>
      .cls-1 {
        fill: #2e4765;
      }
    </style>
  </defs>
  <path id="Icon_material-phone-in-talk" data-name="Icon material-phone-in-talk" class="cls-1" d="M25.306,19.8a13.9,13.9,0,0,1-4.369-.7,1.249,1.249,0,0,0-1.248.294L17,22.088a18.414,18.414,0,0,1-8.066-8.066l2.693-2.7a1.175,1.175,0,0,0,.306-1.224,13.9,13.9,0,0,1-.7-4.369A1.228,1.228,0,0,0,10.008,4.5H5.724A1.228,1.228,0,0,0,4.5,5.724,20.8,20.8,0,0,0,25.306,26.53a1.228,1.228,0,0,0,1.224-1.224V21.023A1.228,1.228,0,0,0,25.306,19.8Zm-1.224-4.284H26.53A11.016,11.016,0,0,0,15.515,4.5V6.948A8.561,8.561,0,0,1,24.083,15.515Zm-4.9,0h2.448a6.122,6.122,0,0,0-6.12-6.12v2.448A3.667,3.667,0,0,1,19.187,15.515Z" transform="translate(-4.5 -4.5)"/>
</svg>
